HIERARCHY
ROOT joint_Root
{
	OFFSET 0.0 0.0 0.0
	CHANNELS 6 Xposition Yposition Zposition Zrotation Xrotation Yrotation 
	JOINT Hips
	{
		OFFSET 4.5925 91.4895 -427.239
		CHANNELS 6 Xposition Yposition Zposition Zrotation Xrotation Yrotation 
		JOINT Spine
		{
			OFFSET 15.7357 0.0 0.0
			CHANNELS 6 Xposition Yposition Zposition Zrotation Xrotation Yrotation 
			JOINT Chest
			{
				OFFSET 8.98455 -0.406207 0.0
				CHANNELS 6 Xposition Yposition Zposition Zrotation Xrotation Yrotation 
				JOINT Neck
				{
					OFFSET 16.3773 0.0 0.0
					CHANNELS 6 Xposition Yposition Zposition Zrotation Xrotation Yrotation 
					JOINT Head
					{
						OFFSET 6.45672 0.0 0.0
						CHANNELS 6 Xposition Yposition Zposition Zrotation Xrotation Yrotation 
						End Site
						{
							OFFSET 0.0 0.0 0.0
						}
					}
				}
				JOINT Shoulder_L
				{
					OFFSET 12.9942 -0.242716 4.98039
					CHANNELS 6 Xposition Yposition Zposition Zrotation Xrotation Yrotation 
					JOINT UpperArm_L
					{
						OFFSET 5.34809 0.0 0.0
						CHANNELS 6 Xposition Yposition Zposition Zrotation Xrotation Yrotation 
						JOINT LowerArm_L
						{
							OFFSET 24.3286 1.87007e-05 0.0
							CHANNELS 6 Xposition Yposition Zposition Zrotation Xrotation Yrotation 
							JOINT Hand_L
							{
								OFFSET 22.2916 0.0 0.0
								CHANNELS 6 Xposition Yposition Zposition Zrotation Xrotation Yrotation 
								End Site
								{
									OFFSET 0.0 0.0 0.0
								}
							}
						}
					}
				}
				JOINT Shoulder_R
				{
					OFFSET 12.9945 -0.242716 -4.98039
					CHANNELS 6 Xposition Yposition Zposition Zrotation Xrotation Yrotation 
					JOINT UpperArm_R
					{
						OFFSET -5.34813 0.0 0.0
						CHANNELS 6 Xposition Yposition Zposition Zrotation Xrotation Yrotation 
						JOINT LowerArm_R
						{
							OFFSET -24.3289 0.000322201 0.0
							CHANNELS 6 Xposition Yposition Zposition Zrotation Xrotation Yrotation 
							JOINT Hand_R
							{
								OFFSET -22.2915 -0.000108084 0.0
								CHANNELS 6 Xposition Yposition Zposition Zrotation Xrotation Yrotation 
								End Site
								{
									OFFSET 0.0 0.0 0.0
								}
							}
						}
					}
				}
			}
		}
		JOINT UpperLeg_L
		{
			OFFSET -2.19248 -6.46944 0.0
			CHANNELS 6 Xposition Yposition Zposition Zrotation Xrotation Yrotation 
			JOINT LowerLeg_L
			{
				OFFSET 39.0811 0.0 -1.23785e-05
				CHANNELS 6 Xposition Yposition Zposition Zrotation Xrotation Yrotation 
				JOINT Foot_L
				{
					OFFSET 40.9854 0.0 -1.26872e-05
					CHANNELS 6 Xposition Yposition Zposition Zrotation Xrotation Yrotation 
					JOINT Toes_L
					{
						OFFSET 11.7543 0.0 0.0
						CHANNELS 6 Xposition Yposition Zposition Zrotation Xrotation Yrotation 
						End Site
						{
							OFFSET 0.0 0.0 0.0
						}
					}
				}
			}
		}
		JOINT UpperLeg_R
		{
			OFFSET -2.19251 6.46944 0.0
			CHANNELS 6 Xposition Yposition Zposition Zrotation Xrotation Yrotation 
			JOINT LowerLeg_R
			{
				OFFSET -39.0811 -0.00228153 -0.0401928
				CHANNELS 6 Xposition Yposition Zposition Zrotation Xrotation Yrotation 
				JOINT Foot_R
				{
					OFFSET -40.9854 0.0 0.0
					CHANNELS 6 Xposition Yposition Zposition Zrotation Xrotation Yrotation 
					JOINT Toes_R
					{
						OFFSET -11.7543 0.0 0.0
						CHANNELS 6 Xposition Yposition Zposition Zrotation Xrotation Yrotation 
						End Site
						{
							OFFSET 0.0 0.0 0.0
						}
					}
				}
			}
		}
	}
}
MOTION
Frames:	6
Frame Time:	0.0333333
0.000000 0.000000 0.000000 0.000000 0.000000 -0.000000 -1.798540 92.534100 -1.671960 88.986000 1.045320 4.149750 15.735700 0.000005 -0.000001 74.537400 87.233300 -74.534500 8.984550 -0.406207 -0.000000 -2.433150 -1.475070 -0.025416 16.377300 -0.000001 -0.000001 7.028700 -2.526320 1.974200 6.456720 -0.000001 -0.000000 1.618460 -1.798950 1.658990 12.994200 -0.242716 4.980390 -82.055400 -14.144600 -60.270100 5.348090 -0.000007 -0.000001 -74.084100 -62.760000 -121.217000 24.328600 0.000019 0.000005 8.241800 10.235600 -39.184600 22.291600 -0.000001 0.000005 17.269200 5.353330 -1.477560 12.994500 -0.242716 -4.980390 95.673100 -12.516500 -65.374400 -5.348130 -0.000001 -0.000004 -60.448200 -68.822900 -105.306000 -24.328900 0.000322 -0.000009 -4.513820 -5.749920 -38.230200 -22.291500 -0.000108 -0.000004 22.123800 5.549710 -8.692450 -2.192480 -6.469440 -0.000000 -174.672000 -11.848400 -3.211700 39.081100 -0.000007 -0.000012 -0.074449 0.192922 21.101500 40.985400 -0.000006 -0.000013 -0.366722 9.330340 -63.667700 11.754300 -0.000000 0.000003 -0.000100 -0.001031 -16.617100 -2.192510 6.469440 -0.000001 177.231000 25.486300 179.005000 -39.081100 -0.002282 -0.040193 -0.007903 0.030936 19.943200 -40.985400 0.000008 0.000006 5.484430 14.755800 -65.429400 -11.754300 -0.000006 -0.000006 -0.002749 -0.037733 -18.107600
0.000000 0.000000 0.000000 0.000000 0.000000 -0.000000 -1.778780 92.564200 -1.763060 89.008600 1.053150 4.047870 15.735700 0.000005 -0.000001 74.192700 87.216500 -74.164000 8.984550 -0.406207 -0.000000 -2.409450 -1.518570 0.025587 16.377300 -0.000001 -0.000001 7.003200 -2.558220 2.008810 6.456720 -0.000001 -0.000000 1.534810 -1.749430 1.692010 12.994200 -0.242716 4.980390 -82.145300 -13.933600 -60.191000 5.348090 -0.000007 -0.000001 -73.864700 -62.947600 -120.956000 24.328600 0.000019 0.000005 8.311950 10.138500 -39.691400 22.291600 -0.000001 0.000005 17.201500 5.351640 -1.426540 12.994500 -0.242716 -4.980390 95.635300 -12.436700 -65.383900 -5.348130 -0.000001 -0.000004 -60.405400 -68.843300 -105.466000 -24.328900 0.000322 -0.000009 -4.731590 -5.934270 -38.673300 -22.291500 -0.000108 -0.000004 22.055800 5.550230 -8.716810 -2.192480 -6.469440 -0.000000 -174.742000 -11.938400 -3.297930 39.081100 -0.000007 -0.000012 -0.070532 0.184637 20.907100 40.985400 -0.000006 -0.000013 -0.345136 9.416240 -63.493200 11.754300 -0.000000 0.000003 -0.000103 -0.001056 -16.618000 -2.192510 6.469440 -0.000001 177.288000 25.405100 178.895000 -39.081100 -0.002282 -0.040193 -0.007190 0.029231 19.778300 -40.985400 0.000008 0.000006 5.466420 14.698800 -65.274300 -11.754300 -0.000006 -0.000006 -0.002634 -0.036391 -18.053000
0.000000 0.000000 0.000000 0.000000 0.000000 -0.000000 -1.762750 92.577500 -1.847470 89.026000 1.056570 3.956270 15.735700 0.000005 -0.000001 73.655400 87.170500 -73.595200 8.984550 -0.406207 -0.000000 -2.335240 -1.597350 0.087793 16.377300 -0.000001 -0.000001 6.980540 -2.575650 1.989400 6.456720 -0.000001 -0.000000 1.448450 -1.659750 1.777230 12.994200 -0.242716 4.980390 -82.306500 -13.613900 -60.147400 5.348090 -0.000007 -0.000001 -73.197500 -63.223100 -120.007000 24.328600 0.000019 0.000005 8.124390 9.649420 -40.420100 22.291600 -0.000001 0.000005 17.277100 5.349750 -1.369790 12.994500 -0.242716 -4.980390 95.563100 -12.254800 -65.350700 -5.348130 -0.000001 -0.000004 -60.194400 -68.612600 -105.292000 -24.328900 0.000322 -0.000009 -5.269540 -6.437470 -39.434700 -22.291500 -0.000108 -0.000004 22.180600 5.551510 -8.777570 -2.192480 -6.469440 -0.000000 -174.805000 -11.964600 -3.408450 39.081100 -0.000007 -0.000012 -0.069487 0.182637 20.830100 40.985400 -0.000006 -0.000013 -0.330407 9.426310 -63.402700 11.754300 -0.000000 0.000003 -0.000092 -0.000956 -16.614300 -2.192510 6.469440 -0.000001 177.308000 25.441100 178.774000 -39.081100 -0.002282 -0.040193 -0.010625 0.038961 19.696000 -40.985400 0.000008 0.000006 5.273850 14.716600 -65.119400 -11.754300 -0.000006 -0.000006 -0.002931 -0.039821 -18.192500
0.000000 0.000000 0.000000 0.000000 0.000000 -0.000000 -1.758050 92.600300 -1.900150 89.030300 1.021260 3.895400 15.735700 0.000005 -0.000001 73.529100 87.107900 -73.424900 8.984550 -0.406207 -0.000000 -2.218070 -1.648580 0.176516 16.377300 -0.000001 -0.000001 6.893780 -2.654260 1.985100 6.456720 -0.000001 -0.000000 1.310310 -1.631890 1.735060 12.994200 -0.242716 4.980390 -82.553600 -13.110800 -60.049700 5.348090 -0.000007 -0.000001 -71.354800 -63.425100 -117.434000 24.328600 0.000019 0.000005 7.974780 8.929600 -42.067800 22.291600 -0.000001 0.000005 17.343700 5.348000 -1.317420 12.994500 -0.242716 -4.980390 95.443900 -12.001300 -65.376700 -5.348130 -0.000001 -0.000004 -58.732800 -68.311800 -103.337000 -24.328900 0.000322 -0.000009 -5.927220 -6.818380 -41.162400 -22.291500 -0.000108 -0.000004 22.371100 5.555450 -8.965940 -2.192480 -6.469440 -0.000000 -174.820000 -12.000700 -3.422360 39.081100 -0.000007 -0.000012 -0.070102 0.185866 20.664800 40.985400 -0.000006 -0.000013 -0.343091 9.454050 -63.282500 11.754300 -0.000000 0.000003 -0.000100 -0.001031 -16.617100 -2.192510 6.469440 -0.000001 177.331000 25.419800 178.747000 -39.081100 -0.002282 -0.040193 -0.012096 0.043490 19.520200 -40.985400 0.000008 0.000006 5.143730 14.815900 -64.956300 -11.754300 -0.000006 -0.000006 -0.002706 -0.037227 -18.087000
0.000000 0.000000 0.000000 0.000000 0.000000 -0.000000 -1.762010 92.597200 -1.950380 89.014600 0.907165 3.847860 15.735700 0.000005 -0.000001 74.047000 87.037600 -73.913900 8.984550 -0.406207 -0.000000 -2.067760 -1.639420 0.236595 16.377300 -0.000001 -0.000001 6.721760 -2.699320 1.979140 6.456720 -0.000001 -0.000000 1.093850 -1.725240 1.895190 12.994200 -0.242716 4.980390 -82.901400 -12.495200 -60.075800 5.348090 -0.000007 -0.000001 -67.831600 -63.581100 -112.464000 24.328600 0.000019 0.000005 7.937630 7.926110 -45.319600 22.291600 -0.000001 0.000005 17.329400 5.348960 -1.346110 12.994500 -0.242716 -4.980390 95.121400 -11.420300 -65.646900 -5.348130 -0.000001 -0.000004 -55.074100 -67.879800 -98.572500 -24.328900 0.000322 -0.000009 -6.641120 -6.836660 -44.359500 -22.291500 -0.000108 -0.000004 22.882300 5.559980 -9.185690 -2.192480 -6.469440 -0.000000 -174.803000 -12.216800 -3.520970 39.081100 -0.000007 -0.000012 -0.070294 0.185771 20.726100 40.985400 -0.000006 -0.000013 -0.321884 9.520000 -63.280900 11.754300 -0.000000 0.000003 -0.000104 -0.001060 -16.618200 -2.192510 6.469440 -0.000001 177.342000 25.480800 178.660000 -39.081100 -0.002282 -0.040193 -0.017550 0.058928 19.504300 -40.985400 0.000008 0.000006 4.886450 15.011100 -64.833400 -11.754300 -0.000006 -0.000006 -0.002818 -0.038522 -18.139700
0.000000 0.000000 0.000000 0.000000 0.000000 -0.000000 -1.777400 92.600600 -1.980320 89.069000 0.800529 3.846760 15.735700 0.000005 -0.000001 74.595100 86.955900 -74.457500 8.984550 -0.406207 -0.000000 -1.894780 -1.628480 0.248308 16.377300 -0.000001 -0.000001 6.469730 -2.775960 1.895740 6.456720 -0.000001 -0.000000 0.755822 -1.905920 2.086350 12.994200 -0.242716 4.980390 -83.413500 -11.654000 -60.247500 5.348090 -0.000007 -0.000001 -61.867900 -63.426900 -104.591000 24.328600 0.000019 0.000005 7.264540 6.299340 -49.284800 22.291600 -0.000001 0.000005 17.539600 5.366820 -1.888230 12.994500 -0.242716 -4.980390 94.696100 -10.627000 -65.989900 -5.348130 -0.000001 -0.000004 -50.296800 -66.712300 -91.718800 -24.328900 0.000322 -0.000009 -7.561320 -6.520040 -49.450100 -22.291500 -0.000108 -0.000004 23.148500 5.561620 -9.266920 -2.192480 -6.469440 -0.000000 -174.830000 -12.422700 -3.484870 39.081100 -0.000007 -0.000012 -0.069249 0.183714 20.653300 40.985400 -0.000006 -0.000013 -0.314432 9.636820 -63.230200 11.754300 -0.000000 0.000003 -0.000099 -0.001023 -16.616800 -2.192510 6.469440 -0.000001 177.265000 25.491600 178.643000 -39.081100 -0.002282 -0.040193 -0.022208 0.072127 19.492100 -40.985400 0.000008 0.000006 4.690070 15.213800 -64.750900 -11.754300 -0.000006 -0.000006 -0.002687 -0.037005 -18.077900
